<svg id="_x33_0" enable-background="new 0 0 64 64" height="512" viewBox="0 0 64 64" width="512" xmlns="http://www.w3.org/2000/svg"><path d="m18 17c7.214 0 12-2.408 12-4 0-.886-1.871-2.058-6-2.818v.818c0 2.243-2.636 4-6 4s-6-1.757-6-4v-.818c-4.129.76-6 1.932-6 2.818 0 1.592 4.786 4 12 4z"/><path d="m18 13c2.289 0 4-1.056 4-2v-3.001c-1.055.624-2.448 1.001-4 1.001s-2.945-.377-4-1.001v3.001c0 .944 1.711 2 4 2z"/><ellipse cx="18" cy="5" rx="4" ry="2"/><path d="m32.026 37.32-.413-4.947-4.202 2.401z"/><path d="m25.36 33.643 6.07-3.469-.218-2.605-8.479 4.624z"/><path d="m20.657 31.048 10.374-5.658-.215-2.576-12.421 6.986z"/><path d="m30.633 20.622-.388-4.654c-2.534 1.937-7.443 3.032-12.245 3.032s-9.711-1.095-12.244-3.032l-.546 6.557 11.127 6.139z"/><path d="m18 57c-2.465 0-5.878-.557-9-1.567v2.567c.194.596 2.851 3 9 3s8.806-2.404 9.009-3.084l-.006-2.49c-3.123 1.016-6.537 1.574-9.003 1.574z"/><path d="m2.996 49.083c.004 2.756 8.945 5.917 15.004 5.917 5.692 0 13.925-2.79 14.901-5.482l-28.559-16.583z"/><path d="m32.613 44.364-27.906-15.814-.181 2.18 28.322 16.445z"/><path d="m32.225 39.715-27.198-15.006-.137 1.646 27.522 15.596z"/><path d="m59 38c-2.206 0-4 1.794-4 4v16c0 1.654-1.346 3-3 3s-3-1.346-3-3v-27c0-2.206-1.794-4-4-4s-4 1.794-4 4v11c0 1.654-1.346 3-3 3h-3.327l.046.557.121 1.443h3.16c2.757 0 5-2.243 5-5v-11c0-1.103.897-2 2-2s2 .897 2 2v27c0 2.757 2.243 5 5 5s5-2.243 5-5v-16c0-1.103.897-2 2-2h4v-2z"/></svg>